# xmcd
#
# Track frame offsets: 
#        150
#        32876
#        58433
#        95895
#        162806
#        192333
#        220660
#        260071
#        292617
#
# Disc length: 4286 seconds
#
# Revision: 5
# Processed by: cddbd v1.5.2PL0 Copyright (c) Steve Scherf et al.
# Submitted via: ExactAudioCopy v0.99pb4
#
DISCID=8710bc09
DTITLE=David Oistrakh - David Oistrakh - The Complete EMI Recordings [
DTITLE=Disc 14]
DYEAR=2008
DGENRE=Classical
TTITLE0=Taneyev: Suite de concert, op.28 (rec.1956) - 1. Praeludium. G
TTITLE0=rave
TTITLE1=Taneyev: Suite de concert, op.28 (rec.1956) - 2. Gavotte. Alle
TTITLE1=gro moderato
TTITLE2=Taneyev: Suite de concert, op.28 (rec.1956) - 3. Märchen. Anda
TTITLE2=ntino
TTITLE3=Taneyev: Suite de concert, op.28 (rec.1956) - 4. Tema con vari
TTITLE3=azione
TTITLE4=Taneyev: Suite de concert, op.28 (rec.1956) - 5. Tarantella. P
TTITLE4=resto
TTITLE5=Franck: Violin Sonata in A major (rec.1954) - 1. Allegretto be
TTITLE5=n moderato
TTITLE6=Franck: Violin Sonata in A major (rec.1954) - 2. Allegro
TTITLE7=Franck: Violin Sonata in A major (rec.1954) - 3. Recitativo-Fa
TTITLE7=ntasia
TTITLE8=Franck: Violin Sonata in A major (rec.1954) - 4. Allegretto po
TTITLE8=co mosso
EXTD=
EXTT0=
EXTT1=
EXTT2=
EXTT3=
EXTT4=
EXTT5=
EXTT6=
EXTT7=
EXTT8=
PLAYORDER=
